<svg xmlns="http://www.w3.org/2000/svg" viewBox="0 0 23.5 23.5">
  <defs>
    <style>
      .cls-1 {
        opacity: 0.2;
      }

      .cls-2, .cls-4 {
        fill: #fff;
      }

      .cls-3, .cls-4 {
        opacity: 0.65;
      }
    </style>
  </defs>
  <title>exit_img_icon</title>
  <g id="fill">
    <g class="cls-1">
      <circle class="cls-2" cx="11.75" cy="11.75" r="10.25"/>
    </g>
  </g>
  <g id="ring">
    <g class="cls-3">
      <path class="cls-2" d="M11.75,1.5A10.25,10.25,0,1,1,1.5,11.75,10.25,10.25,0,0,1,11.75,1.5m0-1.5A11.75,11.75,0,1,0,23.5,11.75,11.76,11.76,0,0,0,11.75,0Z"/>
    </g>
  </g>
  <g id="x">
    <path class="cls-4" d="M17.05,15.29l-3.54-3.54,3.54-3.54a1.25,1.25,0,0,0-1.77-1.77L11.75,10,8.21,6.45A1.25,1.25,0,0,0,6.45,8.21L10,11.75,6.45,15.29a1.25,1.25,0,0,0,1.77,1.77l3.54-3.54,3.54,3.54a1.25,1.25,0,0,0,1.77-1.77Z"/>
  </g>
</svg>
