<svg xmlns="http://www.w3.org/2000/svg" viewBox="0 0 477.63 111.87">
  <defs>
    <style>
      .cls-1 {
        font-size: 26px;
        fill: gray;
        font-family: IngraWd-Regular, Ingra Wd;
        letter-spacing: 0.2em;
      }

      .cls-2 {
        letter-spacing: 0.19em;
      }

      .cls-3 {
        letter-spacing: 0.18em;
      }

      .cls-4 {
        letter-spacing: 0.2em;
      }

      .cls-5 {
        fill: #14afba;
      }
    </style>
  </defs>
  <title>Untitled-2</title>
  <g id="photography">
    <text class="cls-1" transform="translate(103.83 101.83)">PH<tspan class="cls-2" x="49.06" y="0">O</tspan><tspan class="cls-3" x="76.52" y="0">T</tspan><tspan class="cls-4" x="97.08" y="0">O</tspan><tspan x="124.83" y="0">GRAPHY</tspan></text>
  </g>
  <g id="michele_trimmer">
    <g>
      <path class="cls-5" d="M63.73,19c2.23,0,5.11-1.86,5.11-4.74S66.52,9.94,64.2,9.94c-2.6,0-4.27,2.42-4.27,5.3A3.75,3.75,0,0,0,63.73,19Z"/>
      <path class="cls-5" d="M211.27,47.11c-.74,0-1.21.65-1.86,1.58-1.77,2.42-5.39,6.88-10.87,6.88-4.46,0-6.88-2-7.43-5.11,3.53-2.42,11.71-10.22,11.71-17.93,0-3.62-1.58-5.67-5.85-5.67-5.95,0-13,8.92-13,19.33a15.31,15.31,0,0,0,1,5.75,7.86,7.86,0,0,1-5.59,2.89c-5.39,0-8.18-5.95-8.18-9.66,0,0,9.85-20.07,9.85-34.29,0-5.76-1.86-8.55-5.57-8.55-4.65,0-10.5,9.94-10.5,37.82a29.5,29.5,0,0,0,.8,7.06c-.52.2-.93.74-1.45,1.49-1.77,2.42-5.39,6.88-10.87,6.88-4.46,0-6.88-2-7.43-5.11,3.53-2.42,11.71-10.22,11.71-17.93,0-3.62-1.58-5.67-5.85-5.67-5.95,0-13,8.92-13,19.33a15.67,15.67,0,0,0,.78,5c-1.61,1.88-3.7,3.64-6.45,3.64s-4-2.14-4-5.3c0-3.53.74-8.55.74-14.31,0-4.27-1.77-6.6-5.95-6.6-7.8,0-16.63,18.4-17,19.33l.19-3.62S119,22,119,8.27C119,2.6,116.23,0,112.6,0c-9.38,0-10.78,22.21-10.78,40.42,0,2.52,0,5.1,0,7.5-.18.23-.37.48-.57.77-1.77,2.42-5.11,7.25-11,7.25-5.48,0-9-3.16-9-9.85,0-9.39,4.46-15,7.25-15A2.58,2.58,0,0,1,91,33.82c0,1.11-.93,1.67-.93,3a2.87,2.87,0,0,0,3,2.51c2,0,3.25-1.58,3.25-4.18,0-3.62-1.86-8.27-7.71-8.27-7.25,0-12.92,7.62-12.92,19.23a15.87,15.87,0,0,0,.22,2.56l0,0c-1.77,2.42-5.3,6.5-8.55,6.5-2.79,0-5.48-3.25-5.48-10.87s2.79-11.15,2.79-13.38A3.47,3.47,0,0,0,61,27.13c-2.51,0-4.65,8.83-4.65,18.4,0,.8,0,1.56.11,2.29-.21.25-.42.53-.66.87-1.77,2.42-4.46,6.13-6.78,6.13-2.14,0-3.16-1.39-3.16-4.55,0-3.62,1.58-10.5,1.58-14.77s-2.42-6.6-6.32-6.6C34.38,28.9,29,39.3,29,39.3a41.65,41.65,0,0,0,.37-4.46c0-3.62-1-7.8-6.6-7.8C14.59,27,7,40,6.5,40.79c.09-.56.84-7.15.84-9.57s-1-3.72-3.9-3.72C1.58,27.5.37,28.62.37,31.59.37,41.81,0,53.89,0,56.4s.74,3.72,2.69,3.72c2.69,0,3.07-3.25,4.46-9.66s9.57-18.21,14.12-18.21c1.86,0,2.42.93,2.42,3.72,0,3.62-2,14.77-2,17.1s.93,3.72,2.69,3.72a3.26,3.26,0,0,0,3.53-3.35c0-5.95,7.34-19.61,11.43-19.61,1.67,0,2,1,2,2.51,0,3.07-1.58,10.22-1.58,14.59,0,4.74,2.79,8.46,8.08,8.46,4.25,0,7.37-3.61,9.64-6.68,1.71,4.89,5.29,7.43,9.78,7.43,3.94,0,7.62-4,10.08-7.19a13.63,13.63,0,0,0,11.94,7.19c6,0,10-3.22,12.6-6.21,0,2.45,0,4.12,0,4.35,0,2.23.84,3.62,2.32,3.62,2,0,3.07-.65,4.18-6.5C109.72,48.69,118.55,34,122.36,34c1.39,0,1.77.74,1.77,2.6,0,2.14-.74,9.94-.74,14.22,0,4.65,3,8.55,8.92,8.55,4.17,0,7.09-2.19,9.26-4.62,2.43,3.17,6.33,4.89,11,4.89,7.8,0,12.26-5.3,14.59-8.55l0,0c2.65,5.65,7.37,8.3,12.06,8.3,3.28,0,5.83-1.86,7.85-4,2.45,2.81,6.16,4.32,10.54,4.32,7.8,0,12.26-5.3,14.59-8.55a3.51,3.51,0,0,0,.93-2.14A2.17,2.17,0,0,0,211.27,47.11Zm-98.85-42c1.3,0,2,1.12,2,3.16,0,12.36-7.53,29.64-7.53,29.64C106.93,23.79,108.7,5.11,112.42,5.11Zm39,26c.84,0,1.3.46,1.3,1.58,0,5.67-4.83,11-7.62,12.73C145.12,38.75,149.3,31.13,151.44,31.13Zm18.86,7.15c0-18.21,3.07-30.29,5-30.29.74,0,1.11,1,1.11,2.32C176.43,22.86,170.3,38.28,170.3,38.28Zm26.2-7.15c.84,0,1.3.46,1.3,1.58,0,5.67-4.83,11-7.62,12.73C190.18,38.75,194.36,31.13,196.5,31.13Z"/>
      <path class="cls-5" d="M293.49,19c2.23,0,5.11-1.86,5.11-4.74S296.28,9.94,294,9.94c-2.6,0-4.27,2.42-4.27,5.3A3.75,3.75,0,0,0,293.49,19Z"/>
      <path class="cls-5" d="M475.77,47.11c-.74,0-1.21.65-1.86,1.58-1.77,2.42-4.37,5.57-7.62,5.57-2.69,0-3.72-2-3.72-4,0-4.09,2.42-10.41,2.42-15.24,0-2.32-2.23-3.35-5.48-3.35a33,33,0,0,1-4.46-.19A19,19,0,0,0,456.91,25c0-3.34-2.42-5.39-6.23-5.39-4,0-7.25,3.34-7.25,8.08,0,3.16,2.32,5.67,5.76,7.25-2,3.81-4.55,7.9-6.5,10.78-.53.8-.93,1.4-1.23,1.93a8.86,8.86,0,0,0-.81,1c-1.77,2.42-5.39,6.88-10.87,6.88-4.46,0-6.88-2-7.43-5.11,3.53-2.42,11.71-10.22,11.71-17.93,0-3.62-1.58-5.67-5.85-5.67-5.95,0-13,8.92-13,19.33a16.19,16.19,0,0,0,.53,4.18c-1.65,2.16-3.71,4.46-5.54,4.46-2.14,0-3.16-1.39-3.16-4.55,0-3.62,1.58-10.5,1.58-14.77s-2.42-6.6-6.32-6.6c-6.78,0-12.17,10.41-12.17,10.41a41.65,41.65,0,0,0,.37-4.46c0-3.62-1-7.8-6.6-7.8-8.18,0-15.8,13-16.26,13.75.09-.56.84-7.15.84-9.57s-1-3.72-3.9-3.72c-1.86,0-3.07,1.11-3.07,4.09,0,5.82-.12,12.24-.22,17.16-1.77,2.42-4.43,6.07-6.74,6.07-2.14,0-3.16-1.39-3.16-4.55,0-3.62,1.58-10.5,1.58-14.77s-2.42-6.6-6.32-6.6c-6.78,0-12.17,10.41-12.17,10.41a41.65,41.65,0,0,0,.37-4.46c0-3.62-1-7.8-6.6-7.8-8.18,0-15.8,13-16.26,13.75.09-.56.84-7.15.84-9.57s-1-3.72-3.9-3.72c-1.86,0-3.07,1.11-3.07,4.09,0,5.82-.12,12.24-.22,17.15-1.78,2.42-5.28,6.45-8.51,6.45-2.79,0-5.48-3.25-5.48-10.87s2.79-11.15,2.79-13.38a3.47,3.47,0,0,0-3.62-3.81c-2.51,0-4.65,8.83-4.65,18.4a26.2,26.2,0,0,0,.21,3.38c-1.76,2.38-4.3,5.35-7.45,5.35-2.69,0-3.72-2-3.72-4,0-4.09,2.42-10.41,2.42-15.24,0-2.32-2.23-3.35-5.48-3.35a33,33,0,0,1-4.46-.19A19,19,0,0,0,269.52,25c0-3.34-2.42-5.39-6.23-5.39-4,0-7.25,3.34-7.25,8.08,0,3.16,2.32,5.67,5.76,7.25-2,3.81-4.55,7.9-6.5,10.78-.53.8-.93,1.4-1.23,1.93a8.86,8.86,0,0,0-.82,1c-1.77,2.42-4.92,6.88-8,6.88s-5.48-1.39-5.48-11.43a126.88,126.88,0,0,1,1.11-18.21h4c4.55,0,8.27-.93,8.27-2.14s-1.58-3.07-2.6-3.07-.84.93-5.67.93h-3.25l.84-3c.74-2.51,2-4.27,2-5,0-2.14-3.07-4.09-4.83-4.09-1,0-1.58.93-2.14,3.53-.56,2.23-1,5.2-1.49,8.46-1.3-.09-2.51-.09-3.25-.09-1.21,0-2.32,2.32-2.32,3.16s.28,1.39,1.67,1.39h3.34A170.44,170.44,0,0,0,234,44.69c0,11.61,4.18,15.05,9.76,15.05,6,0,9.94-5.39,12.27-8.64.16-.23.3-.44.42-.62a24.78,24.78,0,0,0,1.9-2.63,127,127,0,0,0,7.15-11.8,24,24,0,0,0,3.72.28c1.77,0,2.32.28,2.32,1.67,0,2.51-2.32,7.9-2.32,12.73s3.9,8.36,8.83,8.36c4,0,7.17-2.85,9.46-5.64,1.81,4.39,5.25,6.66,9.49,6.66,3.15,0,6.14-2.55,8.47-5.22,0,.65,0,1.17,0,1.5,0,2.51.74,3.72,2.69,3.72,2.69,0,3.07-3.25,4.46-9.66s9.57-18.21,14.12-18.21c1.86,0,2.42.93,2.42,3.72,0,3.62-2,14.77-2,17.1s.93,3.72,2.69,3.72a3.26,3.26,0,0,0,3.53-3.35c0-5.95,7.34-19.61,11.43-19.61,1.67,0,2,1,2,2.51,0,3.07-1.58,10.22-1.58,14.59,0,4.74,2.79,8.46,8.08,8.46,3.21,0,5.78-2.06,7.82-4.39,0,.61,0,1.1,0,1.42,0,2.51.74,3.72,2.69,3.72,2.69,0,3.07-3.25,4.46-9.66s9.57-18.21,14.12-18.21c1.86,0,2.42.93,2.42,3.72,0,3.62-2,14.77-2,17.1s.93,3.72,2.69,3.72A3.26,3.26,0,0,0,389,53.43c0-5.95,7.34-19.61,11.43-19.61,1.67,0,2,1,2,2.51,0,3.07-1.58,10.22-1.58,14.59,0,4.74,2.79,8.46,8.08,8.46,3.57,0,6.33-2.53,8.47-5.17,2.38,3.52,6.48,5.45,11.41,5.45,7.8,0,12.26-5.3,14.59-8.55.16-.23.3-.44.42-.63a24.83,24.83,0,0,0,1.9-2.63,127,127,0,0,0,7.15-11.8,24,24,0,0,0,3.72.28c1.77,0,2.32.28,2.32,1.67,0,2.51-2.32,7.9-2.32,12.73s3.9,8.36,8.83,8.36c5.2,0,8.92-4.74,11.24-8a3.5,3.5,0,0,0,.93-2.14A2.17,2.17,0,0,0,475.77,47.11ZM263.85,30.57c-2-.84-3-2-3-3.44,0-1.77,1-3,2.14-3s1.86.74,1.86,2.14A12.72,12.72,0,0,1,263.85,30.57Zm163.89.56c.84,0,1.3.46,1.3,1.58,0,5.67-4.83,11-7.62,12.73C421.42,38.75,425.6,31.13,427.74,31.13Zm23.5-.56c-2-.84-3-2-3-3.44,0-1.77,1-3,2.14-3s1.86.74,1.86,2.14A12.72,12.72,0,0,1,451.24,30.57Z"/>
    </g>
  </g>
</svg>
